<?xml version="1.0" encoding="utf-8"?>
<!-- Generator: Adobe Illustrator 19.0.0, SVG Export Plug-In . SVG Version: 6.00 Build 0)  -->
<svg version="1.1" id="Layer_1" xmlns="http://www.w3.org/2000/svg" xmlns:xlink="http://www.w3.org/1999/xlink" x="0px" y="0px"
	 viewBox="0 0 200 200" style="enable-background:new 0 0 200 200;" xml:space="preserve">
<style type="text/css">
	.st0{stroke:#000000;stroke-miterlimit:10;}
</style>
<path id="XMLID_1_" class="st0" d="M121.5,27.9l-7,12.1c-1.2,2.1-3.6,3.2-6,2.7l-13.7-2.9c-2.4-0.5-4.1-2.5-4.4-4.9L89,21
	c-0.3-2.4,1.1-4.7,3.3-5.7L105,9.6c2.2-1,4.8-0.4,6.4,1.4l9.3,10.4C122.4,23.2,122.7,25.8,121.5,27.9z">
	<animate attributeName="opacity"
             values="0;1;0;0;0" dur="1.5s"
             repeatCount="indefinite"
			 />
</path>
<path id="XMLID_2_" class="st0" d="M153.5,61.9l-16.7,7.2c-2.9,1.2-6.2,0.5-8.3-1.9l-12-13.7c-2.1-2.4-2.4-5.8-0.8-8.5l9.3-15.6
	c1.6-2.7,4.8-4,7.8-3.4l17.7,4c3.1,0.7,5.3,3.3,5.6,6.4l1.6,18.1C158.1,57.8,156.4,60.7,153.5,61.9z">
		<animate attributeName="opacity"
             values="0;1;0;0;0" dur="1.5s"
             repeatCount="indefinite"
			 begin="0.1"
			 />
</path>
<path id="XMLID_3_" class="st0" d="M104.1,99.1L83,93.7c-3.6-0.9-6.3-4.1-6.5-7.9l-1.4-21.7c-0.2-3.8,2-7.2,5.5-8.6l20.2-8.1
	c3.5-1.4,7.5-0.4,9.9,2.5l13.9,16.7c2.4,2.9,2.7,7,0.7,10.2l-11.6,18.4C111.6,98.5,107.8,100,104.1,99.1z">
		<animate attributeName="opacity"
             values="0;1;0;0;0" dur="1.5s"
             repeatCount="indefinite"
			 begin="0.2"
			 />
</path>
<path id="XMLID_4_" class="st0" d="M129.4,128.3l-13.8-19.9c-2.4-3.4-2.3-8,0.2-11.3l14.6-19.3c2.5-3.3,6.9-4.7,10.9-3.3l22.8,8
	c3.9,1.4,6.6,5.1,6.5,9.3l-0.5,24.2c-0.1,4.2-2.9,7.8-6.9,9l-23.2,7C136.1,133.3,131.8,131.8,129.4,128.3z">
			<animate attributeName="opacity"
             values="0;1;0;0;0" dur="1.5s"
             repeatCount="indefinite"
			 begin="0.3"
			 />
</path>
<path id="XMLID_5_" class="st0" d="M64.9,187.2l-30-25.2c-5.2-4.4-7-11.6-4.4-17.8l14.7-36.3c2.5-6.3,8.8-10.2,15.6-9.7l39.1,2.8
	c6.8,0.5,12.4,5.3,14.1,11.8l9.4,38c1.6,6.6-1.2,13.4-6.9,17l-33.3,20.7C77.5,192.1,70.1,191.6,64.9,187.2z">
			<animate attributeName="opacity"
             values="0;1;0;0;0" dur="1.5s"
             repeatCount="indefinite"
			 begin="0.4"
			 />
</path>
</svg>
